<svg id="Layer_1" data-name="Layer 1" xmlns="http://www.w3.org/2000/svg" viewBox="0 0 150 48"><defs><style>.cls-1{fill:#2f6dda;}</style></defs><title>logo</title><path d="M30.33,26.46H25.67L25,28.58h-4.6l5.12-14h5.06l5.1,14H31Zm-1.07-3.3L28,19.27l-1.27,3.89Z"/><path d="M42.53,17.73A3.13,3.13,0,0,1,43.73,19V17.43H48.1v11a6.89,6.89,0,0,1-.57,2.84,4.54,4.54,0,0,1-1.85,2.06,6.28,6.28,0,0,1-3.27.77,6.67,6.67,0,0,1-4.26-1.25,4.78,4.78,0,0,1-1.79-3.41h4.31c.12.58.59.87,1.42.87a1.76,1.76,0,0,0,1.21-.4,2,2,0,0,0,.43-1.48V27.05a3.06,3.06,0,0,1-1.2,1.22,3.76,3.76,0,0,1-1.88.44A4.15,4.15,0,0,1,38.3,28a4.55,4.55,0,0,1-1.65-2A7.11,7.11,0,0,1,36,23,7,7,0,0,1,36.65,20a4.64,4.64,0,0,1,1.65-2,4.23,4.23,0,0,1,2.35-.68A3.87,3.87,0,0,1,42.53,17.73Zm.75,3.89a1.62,1.62,0,0,0-2.34,0A2,2,0,0,0,40.49,23a2,2,0,0,0,.45,1.39,1.64,1.64,0,0,0,2.34,0A2,2,0,0,0,43.73,23,2,2,0,0,0,43.28,21.62Z"/><path d="M60.81,23.77H53.75c.07,1,.47,1.45,1.21,1.45a1.08,1.08,0,0,0,1-.66h4.64a4.87,4.87,0,0,1-1,2.13,5.35,5.35,0,0,1-1.92,1.48,5.89,5.89,0,0,1-2.53.54,6.19,6.19,0,0,1-3-.69,5,5,0,0,1-2-2,6.18,6.18,0,0,1-.72-3,6.12,6.12,0,0,1,.72-3,5,5,0,0,1,2-2,6.19,6.19,0,0,1,3-.69,6.29,6.29,0,0,1,3,.68,5,5,0,0,1,2,2,6.48,6.48,0,0,1,.66,3.85Zm-4.39-1.91a1,1,0,0,0-.36-.84,1.3,1.3,0,0,0-.88-.29,1.24,1.24,0,0,0-1.37,1.13Z"/><path d="M73.05,18.63a5.25,5.25,0,0,1,1.08,3.48v6.47H69.76V22.67a1.81,1.81,0,0,0-.42-1.26,1.66,1.66,0,0,0-2.29,0,1.85,1.85,0,0,0-.41,1.26v5.91H62.25V17.43h4.39v1.7A4,4,0,0,1,68,17.84a4.07,4.07,0,0,1,2-.49A3.7,3.7,0,0,1,73.05,18.63Z"/><path d="M76,20a4.64,4.64,0,0,1,1.65-2A4.25,4.25,0,0,1,80,17.29a3.8,3.8,0,0,1,1.87.44A3,3,0,0,1,83.1,19V14h4.39V28.58H83.1V27.05a3,3,0,0,1-1.19,1.22,3.7,3.7,0,0,1-1.87.44A4.17,4.17,0,0,1,77.69,28a4.55,4.55,0,0,1-1.65-2A7.26,7.26,0,0,1,75.43,23,7.18,7.18,0,0,1,76,20Zm6.63,1.67a1.61,1.61,0,0,0-2.33,0A1.93,1.93,0,0,0,79.88,23a2,2,0,0,0,.46,1.39,1.63,1.63,0,0,0,2.33,0A2,2,0,0,0,83.12,23,2,2,0,0,0,82.67,21.62Z"/><path d="M89.48,20a4.64,4.64,0,0,1,1.65-2,4.25,4.25,0,0,1,2.35-.68,3.87,3.87,0,0,1,1.88.44A3.06,3.06,0,0,1,96.56,19V17.43h4.37V28.58H96.56V27.05a3,3,0,0,1-1.2,1.22,3.76,3.76,0,0,1-1.88.44A4.17,4.17,0,0,1,91.13,28a4.55,4.55,0,0,1-1.65-2A7.26,7.26,0,0,1,88.87,23,7.18,7.18,0,0,1,89.48,20Zm6.63,1.67a1.61,1.61,0,0,0-2.33,0A1.93,1.93,0,0,0,93.32,23a2,2,0,0,0,.46,1.39,1.63,1.63,0,0,0,2.33,0A2,2,0,0,0,96.56,23,2,2,0,0,0,96.11,21.62Z"/><path class="cls-1" d="M111.37,28.58l-4.07-6.07v6.07h-4.39v-14h4.39v5.89l4-5.89h5l-4.82,6.7,5.14,7.3Z"/><path class="cls-1" d="M129.63,17.43V28.58h-4.39v-1.7a3.9,3.9,0,0,1-3.42,1.77,3.69,3.69,0,0,1-3-1.28,5.25,5.25,0,0,1-1.08-3.48V17.43h4.37v5.91a1.76,1.76,0,0,0,.43,1.25,1.62,1.62,0,0,0,2.28,0,1.84,1.84,0,0,0,.41-1.25V17.43Z"/></svg>